<svg xmlns="http://www.w3.org/2000/svg" xmlns:xlink="http://www.w3.org/1999/xlink" version="1.1" x="0px" y="0px" viewBox="0 0 100 100" enable-background="new 0 0 100 100" xml:space="preserve"><g><path fill="white" d="M52.6,46.8l0.6-0.1c11.3-1.2,19.8-8.2,19.8-16.5c0,0-10.4,3.2-23.1,3.2s-23.1-3.2-23.1-3.2c0,8.1,8.4,15.2,19.5,16.4   l0.5,0.1L52.6,46.8z"/><path fill="white" d="M51.8,72.9V52.8H53c0-1,0.3-1.6,0.6-2c13.1-1.4,23.3-10.5,23.3-21.4c0-3.2-0.9-6.3-2.5-9c-0.7-2.6-11.4-4.7-24.5-4.7   c-13.3,0-24.1,2.1-24.5,4.8l-0.1,0c-1.5,2.7-2.4,5.7-2.4,8.9c0,10.9,10,19.9,23,21.4c0.5,0.4,0.9,1.1,0.9,2.1h0h1.1v20.2   c-11,0.2-19.6,2.1-19.6,4.4c0,2.5,9.6,4.5,21.4,4.5s21.4-2,21.4-4.5C71.4,75.1,62.8,73.1,51.8,72.9z M50,17.6   c12.2,0,19.7,1.7,22,2.9c-2.3,1.2-9.8,2.9-22,2.9s-19.7-1.7-22-2.9C30.3,19.3,37.8,17.6,50,17.6z M46.9,48.8l-0.6-0.1   C34.2,47.3,25.1,39,25.1,29.3c0-2.4,0.5-4.7,1.6-6.9l0.5,0l0,0c3.1,1.6,11.2,3.1,22.8,3.1c11.7,0,19.9-1.6,22.9-3.2l0.3-0.1   c1.1,2.3,1.7,4.7,1.7,7.2c0,9.8-9.2,18.1-21.5,19.5l-0.8,0.1L46.9,48.8z"/></g></svg>