<svg xmlns="http://www.w3.org/2000/svg" xmlns:xlink="http://www.w3.org/1999/xlink" version="1.1" x="0px" y="0px" viewBox="0 0 100 100" style="enable-background:new 0 0 100 100;" xml:space="preserve"><path fill="white" d="M67,57c0-9.4-7.6-17-17-17s-17,7.6-17,17s7.6,17,17,17S67,66.4,67,57z M88,33c0-2.2-1.8-4-4-4H67l-2.9-5.8  C63.4,21.9,62,21,60.5,21H39.5c-1.5,0-2.9,0.9-3.6,2.2L33,29h-4v-1c0-1.1-0.9-2-2-2h-8c-1.1,0-2,0.9-2,2v1h-1c-2.2,0-4,1.8-4,4v10  h14.9c-0.4,0.6-0.8,1.3-1.1,2H12v30c0,2.2,1.8,4,4,4h18.4c4.4,3.1,9.8,5,15.6,5s11.2-1.9,15.6-5H84c2.2,0,4-1.8,4-4V45H74.2  c-0.3-0.7-0.7-1.4-1.1-2H88V33z M42,25c0-0.6,0.4-1,1-1h14c0.6,0,1,0.4,1,1v1c0,0.6-0.4,1-1,1H43c-0.6,0-1-0.4-1-1V25z M50,78  c-11.6,0-21-9.4-21-21s9.4-21,21-21s21,9.4,21,21S61.6,78,50,78z M83,37c0,0.6-0.4,1-1,1H72c-0.6,0-1-0.4-1-1v-2c0-0.6,0.4-1,1-1h10  c0.6,0,1,0.4,1,1V37z"/></svg>