<svg xmlns="http://www.w3.org/2000/svg" xmlns:xlink="http://www.w3.org/1999/xlink" version="1.1" x="0px" y="0px" viewBox="0 0 100 100" style="enable-background:new 0 0 100 100;" xml:space="preserve"><g><path fill="salmon" d="M49,54.5c0-1.4,0.5-2.6,1.4-3.5c-1.9-0.8-3.3-2.7-3.3-4.9c0-2.2,1.4-4.1,3.3-4.9c-0.8-0.9-1.4-2.2-1.4-3.5   c0-2.9,2.4-5.3,5.3-5.3h4.1c6-7.5,5.1-12.1,4.4-13.8c-0.7-1.7-1.9-2.5-2.9-2.6c-0.5,0-0.9,0.1-1.1,0.5C56.1,20.9,52,24,48.4,26.8   c-0.8,0.6-1.6,1.2-2.4,1.9c-5.3,4.3-9.2,7.7-9.2,7.7l-0.3,0.3h-6.9c-1.4,0-2.6,1.1-2.6,2.6v15.9c0,1.4,1.1,2.6,2.6,2.6h6.6l0.3,0.7   c1.6,4.6,6.3,7.8,11.7,7.8h4.2c-0.6-0.9-1-2-1-3.1c0-1.3,0.5-2.5,1.3-3.4C50.5,58.8,49,56.8,49,54.5z"/><path fill="salmon" d="M51.2,37.5c0,1.7,1.4,3.1,3.1,3.1h11.7c1.7,0,3.1-1.4,3.1-3.1c0-1.7-1.4-3.1-3.1-3.1H54.4C52.6,34.4,51.2,35.8,51.2,37.5z"/><path fill="salmon" d="M66.1,51.3H54.4c-1.7,0-3.1,1.4-3.1,3.1s1.4,3.1,3.1,3.1h2.3h5.7h3.7c1.7,0,3.1-1.4,3.1-3.1S67.8,51.3,66.1,51.3z"/><path fill="salmon" d="M62.3,59.8h-5.7c-1.7,0-3.1,1.4-3.1,3.1c0,1.7,1.4,3.1,3.1,3.1h2.8h2.8c1.7,0,3.1-1.4,3.1-3.1   C65.5,61.2,64.1,59.8,62.3,59.8z"/><path fill="salmon" d="M68.9,42.9h-2.8H54.4h-2c-1.7,0-3.1,1.4-3.1,3.1c0,1.7,1.4,3.1,3.1,3.1h2h11.7h2.8c1.7,0,3.1-1.4,3.1-3.1   C72,44.3,70.6,42.9,68.9,42.9z"/><path fill="salmon" d="M82.8,1H17.2C12.7,1,9,4.6,9,9.1v65.7c0,4.5,3.6,8.1,8.1,8.1h38.5L75,98.7c0.2,0.2,0.6,0.3,0.9,0.3c0.2,0,0.4,0,0.6-0.1   c0.5-0.2,0.8-0.7,0.8-1.2l0.1-14.8h5.6c4.5,0,8.1-3.6,8.1-8.1V9.1C91,4.6,87.3,1,82.8,1z M88.2,74.8c0,3-2.4,5.4-5.4,5.4h-7   c-0.7,0-1.4,0.6-1.4,1.3l-0.1,13.3L57.1,80.5c-0.2-0.2-0.5-0.3-0.9-0.3h-39c-3,0-5.4-2.4-5.4-5.4V9.1c0-3,2.4-5.4,5.4-5.4h65.7   c3,0,5.4,2.4,5.4,5.4V74.8z"/></g></svg>