<svg xmlns="http://www.w3.org/2000/svg" xmlns:xlink="http://www.w3.org/1999/xlink" version="1.1" x="0px" y="0px" viewBox="0 0 100 100" style="enable-background:new 0 0 100 100;" xml:space="preserve"><g><path fill="salmon" d="M86.1,12.2H13.9c-2.5,0-4.5,2-4.5,4.5v41.8c0,2.5,2,4.5,4.5,4.5h4l23.7,23.7c1.7,1.7,3.2,1.1,3.2-1.3V64.2   c0-0.4-0.1-0.9-0.2-1.3h41.6c2.5,0,4.5-2,4.5-4.5V16.7C90.6,14.2,88.6,12.2,86.1,12.2z M63.8,49.7H18.1v-5.2h45.7V49.7z M81.9,39.1   H18.1v-5.2h63.9V39.1z M81.9,28.5H18.1v-5.2h63.9V28.5z"/></g></svg>