<svg xmlns="http://www.w3.org/2000/svg" data-name="Layer 1" viewBox="0 0 100 125" x="0px" y="0px"><title>Artboard 5</title><path d="M20.56,36.64l1-32A2.75,2.75,0,0,1,24.33,2h0a2.75,2.75,0,0,1,2.75,2.65l.72,20.87a2.29,2.29,0,0,0,2,2.24,2.2,2.2,0,0,0,2.44-2.11l.72-20.89a2.75,2.75,0,1,1,5.5,0l.72,20.89a2.2,2.2,0,0,0,2.44,2.11,2.29,2.29,0,0,0,2-2.24l.72-20.87A2.75,2.75,0,0,1,47,2h0a2.75,2.75,0,0,1,2.75,2.65l1,32a8.54,8.54,0,0,1-4.13,7.61l-5.57,3.36,4.25,39.9a9.68,9.68,0,1,1-19.3,0l4.25-39.9-5.57-3.36A8.54,8.54,0,0,1,20.56,36.64ZM67.44,50h2L63,88.39a8.26,8.26,0,1,0,16.4,1.36V5a3,3,0,0,0-3-3,15,15,0,0,0-15,15V44A6,6,0,0,0,67.44,50Z"/><text x="0" y="115" fill="#000000" font-size="5px" font-weight="bold" font-family="'Helvetica Neue', Helvetica, Arial-Unicode, Arial, Sans-serif">Created by Gregor Cresnar</text><text x="0" y="120" fill="#000000" font-size="5px" font-weight="bold" font-family="'Helvetica Neue', Helvetica, Arial-Unicode, Arial, Sans-serif">from the Noun Project</text></svg>