<svg xmlns:dc="http://purl.org/dc/elements/1.1/" xmlns:cc="http://creativecommons.org/ns#" xmlns:rdf="http://www.w3.org/1999/02/22-rdf-syntax-ns#" xmlns:svg="http://www.w3.org/2000/svg" xmlns="http://www.w3.org/2000/svg" xmlns:sodipodi="http://sodipodi.sourceforge.net/DTD/sodipodi-0.dtd" xmlns:inkscape="http://www.inkscape.org/namespaces/inkscape" version="1.1" x="0px" y="0px" viewBox="0 0 100 125"><g transform="translate(0,-952.36218)"><path style="color:#000000;enable-background:accumulate;" d="m 38,967.36216 -7,12 -16,0 c -4.986,0 -9,4.014 -9,9 l 0,40.00004 c 0,4.986 4.014,9 9,9 l 70,0 c 4.986,0 9,-4.014 9,-9 l 0,-40.00004 c 0,-4.986 -4.014,-9 -9,-9 l -16,0 -7,-12 -24,0 z m 12,18 c 12.679,0 23,10.3212 23,23.00004 0,12.6788 -10.321,23 -23,23 -12.6788,0 -23,-10.3212 -23,-23 0,-12.67884 10.3212,-23.00004 23,-23.00004 z m 31,3 c 1.6568,0 3,1.3432 3,3 0,1.6568 -1.3432,3 -3,3 -1.6568,0 -3,-1.3432 -3,-3 0,-1.6568 1.3432,-3 3,-3 z m -31,1 c -10.517,0 -19,8.4829 -19,19.00004 0,10.5171 8.483,19 19,19 10.5172,0 19,-8.4829 19,-19 0,-10.51714 -8.4828,-19.00004 -19,-19.00004 z m 0,8 c 6.0751,0 11,4.92494 11,11.00004 0,6.0751 -4.9249,11 -11,11 -6.0751,0 -11,-4.9249 -11,-11 0,-6.0751 4.9249,-11.00004 11,-11.00004 z" fill="#000000" stroke="none" marker="none" visibility="visible" display="inline" overflow="visible"/></g><text x="0" y="115" fill="#000000" font-size="5px" font-weight="bold" font-family="'Helvetica Neue', Helvetica, Arial-Unicode, Arial, Sans-serif">Created by Alfa Design</text><text x="0" y="120" fill="#000000" font-size="5px" font-weight="bold" font-family="'Helvetica Neue', Helvetica, Arial-Unicode, Arial, Sans-serif">from the Noun Project</text></svg>